<!DOCTYPE svg PUBLIC "-//W3C//DTD SVG 20010904//EN" "http://www.w3.org/TR/2001/REC-SVG-20010904/DTD/svg10.dtd">
<svg version="1.0" xmlns="http://www.w3.org/2000/svg" width="1200px" height="1200px" viewBox="0 0 12000 12000" preserveAspectRatio="xMidYMid meet">
<g id="layer101" fill="#101111" stroke="none">
<path d="M0 6000 l0 -6000 6000 0 6000 0 0 6000 0 6000 -6000 0 -6000 0 0 -6000z"/>
</g>
<g id="layer102" fill="#404141" stroke="none">
<path d="M0 6000 l0 -6000 6000 0 6000 0 0 6000 0 6000 -6000 0 -6000 0 0 -6000z m3608 4005 c11 -13 25 -39 32 -57 6 -18 16 -42 20 -53 4 -11 15 -39 24 -62 9 -24 22 -60 30 -80 8 -21 33 -90 56 -153 23 -63 46 -126 52 -140 6 -14 14 -36 18 -50 5 -14 34 -97 64 -185 155 -440 159 -455 110 -455 -39 0 -81 52 -136 170 -28 58 -53 114 -58 125 -12 32 -37 96 -55 145 -18 49 -32 70 -47 70 -5 0 -78 -67 -161 -148 -164 -159 -231 -217 -289 -247 -20 -10 -42 -30 -49 -44 -17 -38 -23 -422 -10 -711 13 -288 41 -627 71 -855 44 -345 70 -480 96 -505 10 -10 125 -63 254 -118 129 -55 294 -125 365 -156 142 -62 619 -297 649 -320 11 -10 16 -21 12 -32 -6 -15 -19 -16 -114 -11 -59 4 -131 13 -160 21 -155 44 -377 139 -602 260 -215 115 -329 167 -358 164 -27 -3 -27 -4 -26 -78 2 -82 34 -219 65 -269 10 -17 33 -40 49 -50 40 -24 164 -62 310 -95 63 -15 142 -33 175 -40 33 -8 96 -22 140 -31 44 -9 96 -21 115 -26 32 -9 73 -17 190 -38 77 -14 173 -32 220 -42 61 -13 157 -25 330 -44 80 -8 163 -19 185 -25 22 -5 55 -12 73 -15 51 -10 34 -35 -24 -35 -14 0 -27 -7 -30 -15 -5 -12 -32 -15 -153 -15 -190 0 -393 22 -696 75 -49 9 -116 20 -148 26 -33 5 -63 12 -69 15 -5 3 -33 10 -61 14 -29 5 -81 16 -117 24 -107 23 -222 47 -271 56 -26 5 -64 13 -85 19 -22 6 -54 11 -71 11 l-33 0 0 -67 c-1 -315 72 -746 190 -1128 57 -186 82 -261 90 -277 6 -10 10 -24 10 -33 0 -8 6 -29 14 -47 8 -18 22 -53 31 -78 10 -25 21 -54 25 -65 35 -92 83 -198 131 -291 215 -419 515 -711 892 -868 131 -55 208 -78 390 -115 214 -45 260 -62 330 -127 74 -68 205 -134 268 -134 67 0 143 -50 274 -179 63 -62 119 -110 124 -106 6 3 11 32 11 63 0 31 5 91 11 132 5 41 14 109 18 150 10 89 33 150 57 150 19 0 119 -16 219 -35 330 -64 622 -28 846 102 238 138 403 371 523 738 14 44 31 96 38 115 6 19 15 51 19 70 4 19 15 62 24 95 19 73 44 176 55 230 4 22 15 72 24 110 80 352 149 753 161 940 8 127 4 135 -91 145 -117 13 -407 57 -679 104 -243 41 -318 52 -648 91 -71 8 -133 17 -138 20 -22 14 -7 43 30 60 34 15 60 17 183 12 78 -3 190 -12 248 -20 58 -9 143 -20 190 -27 47 -6 92 -13 100 -15 45 -13 525 -77 639 -85 113 -9 138 -8 156 4 22 14 78 169 119 326 8 30 24 91 36 135 31 115 59 253 77 383 l6 42 -41 0 c-38 0 -92 -13 -192 -46 -27 -9 -46 -11 -48 -5 -3 10 -14 8 -57 -8 -49 -19 -93 -33 -123 -41 -18 -4 -50 -19 -70 -33 -20 -14 -64 -34 -97 -45 -33 -11 -116 -41 -185 -65 -518 -186 -579 -207 -608 -207 -34 0 -30 52 5 80 85 67 377 170 836 294 26 7 47 10 47 5 0 -4 -5 -10 -10 -12 -6 -3 -5 -4 2 -2 48 13 96 28 113 35 11 4 47 16 80 26 33 10 68 27 77 36 10 10 28 18 41 18 13 0 27 4 33 8 5 5 38 19 74 33 46 17 80 39 115 74 48 47 52 55 68 135 20 100 34 216 47 395 5 72 12 146 15 165 3 19 10 112 15 205 6 94 17 271 25 395 8 124 20 313 25 420 5 107 13 236 19 285 12 107 18 406 8 421 -7 12 -43 22 -167 49 -223 48 -318 84 -449 172 -36 24 -71 43 -78 43 -9 0 -13 -16 -13 -55 0 -64 -25 -122 -66 -154 -29 -23 -59 -27 -69 -11 -10 16 -6 266 5 335 5 33 14 105 20 160 15 150 37 306 49 344 18 57 56 67 96 26 22 -21 25 -33 25 -102 0 -43 -5 -121 -12 -175 -17 -139 -9 -160 106 -274 117 -116 156 -145 212 -155 46 -9 428 5 457 17 14 5 24 -10 52 -70 19 -43 35 -85 35 -95 0 -9 6 -23 13 -30 9 -9 12 -75 12 -259 0 -231 -4 -288 -36 -492 -6 -36 -14 -96 -19 -135 -4 -38 -13 -92 -19 -120 -5 -27 -17 -95 -26 -150 -9 -55 -21 -120 -25 -145 -22 -108 -33 -169 -41 -220 -4 -30 -15 -93 -24 -140 -39 -203 -82 -466 -96 -588 -11 -98 -10 -105 8 -123 18 -18 24 -19 69 -8 27 6 67 18 89 25 92 32 185 6 185 -52 0 -18 -11 -29 -50 -49 -27 -14 -60 -25 -73 -25 -14 0 -44 -7 -67 -15 -23 -8 -57 -15 -75 -15 -36 0 -106 -26 -117 -43 -3 -6 -9 -38 -13 -71 -16 -160 -56 -343 -111 -511 -68 -206 -80 -297 -44 -330 29 -27 139 -33 540 -34 190 -1 396 -4 458 -8 98 -5 112 -8 112 -24 0 -9 6 -20 13 -23 10 -5 10 -7 -1 -12 -6 -3 -12 -11 -12 -19 0 -9 -34 -14 -127 -19 -329 -17 -586 -26 -790 -26 -257 0 -234 10 -252 -115 -7 -44 -16 -105 -21 -135 -34 -199 -90 -664 -90 -746 0 -107 42 -149 200 -200 154 -51 268 -66 550 -74 146 -4 276 -11 290 -15 63 -20 140 -93 171 -163 45 -103 18 -191 -179 -590 -61 -124 -79 -153 -100 -159 -34 -8 -324 5 -381 18 -184 42 -271 82 -475 218 -145 98 -295 181 -326 181 -11 0 -22 -6 -24 -12 -2 -7 -11 -47 -21 -88 -33 -135 -159 -352 -292 -500 -132 -147 -373 -275 -585 -311 -79 -13 -93 -12 -348 36 -163 31 -251 15 -297 -54 -20 -29 -23 -47 -23 -130 0 -53 5 -116 11 -141 6 -25 15 -67 19 -95 5 -27 16 -79 25 -115 41 -161 45 -254 14 -294 -17 -22 -28 -26 -71 -26 -50 0 -52 1 -121 73 -63 65 -237 286 -237 301 0 4 -10 23 -23 44 -13 20 -31 58 -41 84 -25 67 -35 73 -130 70 -45 -2 -94 2 -109 7 -42 16 -109 84 -188 188 -64 85 -79 99 -135 125 -86 40 -186 66 -534 139 -206 43 -315 86 -404 158 -38 30 -178 164 -312 296 -238 235 -314 327 -314 377 0 45 -21 98 -45 114 -47 30 -117 -6 -262 -136 -155 -140 -250 -167 -395 -116 -95 34 -153 70 -230 144 -62 60 -138 167 -138 196 0 6 -4 16 -10 22 -15 15 -31 100 -37 192 -5 76 -3 86 17 107 12 12 40 30 63 38 73 26 247 47 385 47 160 0 250 19 294 63 25 26 28 35 28 95 0 37 -5 83 -10 102 -6 19 -15 62 -20 95 -5 33 -16 89 -25 125 -40 174 -48 208 -55 245 -4 22 -15 72 -24 110 -24 101 -47 221 -56 285 -4 30 -12 87 -18 125 -6 39 -19 138 -28 220 -9 83 -21 155 -28 160 -6 6 -38 19 -71 29 -33 10 -91 29 -130 41 -38 13 -164 53 -280 90 -327 106 -771 270 -1035 383 -210 90 -240 105 -240 116 0 7 -32 28 -71 47 -86 41 -68 50 32 15 40 -14 76 -22 79 -17 3 5 70 -16 150 -46 814 -307 1043 -386 1327 -457 79 -19 184 -30 216 -22 33 8 39 38 22 118 -46 222 -157 319 -791 691 -293 172 -346 206 -341 220 2 6 -29 32 -67 58 -92 62 -143 105 -134 114 9 9 70 -22 176 -91 45 -30 93 -54 105 -54 12 0 49 -17 82 -37 145 -88 806 -411 879 -429 l29 -7 -6 49 c-24 197 -38 336 -47 439 -33 406 -88 763 -155 1010 -20 73 -42 188 -55 290 -12 100 -2 202 27 263 18 39 81 82 118 82 22 0 67 21 85 40 3 3 28 23 55 44 28 22 125 114 218 205 189 186 183 175 144 294 -13 40 -32 99 -41 132 -10 33 -22 76 -28 95 -25 79 -45 218 -34 245 9 25 72 19 94 -10z m2017 1 c22 -33 35 -146 45 -404 4 -123 11 -227 15 -230 4 -4 61 -12 127 -18 127 -11 140 -17 136 -63 -4 -32 -32 -40 -183 -49 l-120 -7 -6 -170 c-8 -188 -18 -269 -39 -302 -21 -33 -37 -35 -65 -10 -34 31 -55 169 -55 372 0 85 -3 155 -7 155 -230 9 -254 13 -267 47 -19 48 50 73 198 73 95 0 115 3 120 16 3 9 6 123 6 255 0 213 2 244 20 291 27 72 49 84 75 44z m796 -79 c7 -40 15 -180 19 -317 l5 -245 123 -11 c67 -5 127 -15 133 -21 6 -6 9 -23 7 -39 -3 -26 -8 -30 -58 -41 -30 -6 -85 -12 -121 -12 -40 -1 -71 -6 -77 -13 -6 -7 -12 -42 -14 -78 -10 -140 -34 -319 -55 -392 -7 -26 -50 -23 -67 5 -18 29 -36 220 -36 385 0 99 -3 132 -12 132 -185 0 -268 19 -268 61 0 36 68 59 172 59 l93 0 18 168 c9 92 17 185 18 207 1 67 33 214 52 236 17 19 20 20 36 5 11 -10 24 -46 32 -89z m879 57 c100 -20 150 -38 245 -85 124 -63 173 -106 159 -144 -5 -13 -16 -15 -53 -10 -25 3 -64 12 -86 19 -206 68 -323 96 -404 96 -99 0 -158 -29 -200 -100 -30 -51 -27 -92 9 -128 45 -46 114 -62 300 -72 151 -8 279 -22 322 -36 9 -3 31 -21 47 -40 77 -87 13 -227 -136 -302 -237 -119 -526 1 -659 273 -99 204 -96 297 15 405 123 120 266 161 441 124z m-2572 -10 c212 -43 348 -165 403 -364 29 -106 26 -175 -12 -234 -44 -70 -120 -140 -186 -173 -53 -26 -67 -28 -168 -27 -119 1 -158 10 -275 67 -91 45 -196 151 -241 242 -31 64 -34 77 -34 165 0 82 4 103 26 151 31 66 84 122 142 149 87 40 220 50 345 24z m1266 -4039 c15 -8 34 -15 41 -15 8 0 27 -17 44 -37 59 -72 36 -174 -49 -218 -66 -34 -128 -49 -203 -50 -76 0 -80 1 -103 30 -54 67 -10 202 90 276 33 24 50 29 95 29 31 0 69 -7 85 -15z m-1851 -373 c79 -27 103 -45 126 -98 28 -62 26 -106 -4 -155 -32 -49 -64 -62 -137 -56 -96 8 -150 65 -156 165 -5 75 7 104 58 138 42 29 42 29 113 6z m3581 -382 c24 -9 26 -15 26 -64 0 -102 -56 -186 -125 -186 -27 0 -41 9 -72 44 -21 24 -46 66 -57 95 -17 47 -17 53 -2 76 9 13 31 29 49 34 43 12 150 13 181 1z"/>
<path d="M3383 6623 c9 -2 23 -2 30 0 6 3 -1 5 -18 5 -16 0 -22 -2 -12 -5z"/>
<path d="M8153 5533 c4 -3 10 -3 14 0 3 4 0 7 -7 7 -7 0 -10 -3 -7 -7z"/>
<path d="M8253 5523 c4 -3 10 -3 14 0 3 4 0 7 -7 7 -7 0 -10 -3 -7 -7z"/>
<path d="M4271 5384 c0 -11 3 -14 6 -6 3 7 2 16 -1 19 -3 4 -6 -2 -5 -13z"/>
</g>
<g id="layer103" fill="#c1c0c0" stroke="none">
<path d="M0 6000 l0 -6000 6000 0 6000 0 0 6000 0 6000 -6000 0 -6000 0 0 -6000z m3608 4005 c11 -13 25 -39 32 -57 6 -18 16 -42 20 -53 4 -11 15 -39 24 -62 9 -24 22 -60 30 -80 8 -21 33 -90 56 -153 23 -63 46 -126 52 -140 6 -14 14 -36 18 -50 5 -14 34 -97 64 -185 155 -440 159 -455 110 -455 -39 0 -81 52 -136 170 -28 58 -53 114 -58 125 -12 32 -37 96 -55 145 -18 49 -32 70 -47 70 -5 0 -78 -67 -161 -148 -164 -159 -231 -217 -289 -247 -20 -10 -42 -30 -49 -44 -17 -38 -23 -422 -10 -711 13 -288 41 -627 71 -855 44 -345 70 -480 96 -505 10 -10 125 -63 254 -118 129 -55 294 -125 365 -156 142 -62 619 -297 649 -320 11 -10 16 -21 12 -32 -6 -15 -19 -16 -114 -11 -59 4 -131 13 -160 21 -155 44 -377 139 -602 260 -215 115 -329 167 -358 164 -27 -3 -27 -4 -26 -78 2 -82 34 -219 65 -269 10 -17 33 -40 49 -50 40 -24 164 -62 310 -95 63 -15 142 -33 175 -40 33 -8 96 -22 140 -31 44 -9 96 -21 115 -26 32 -9 73 -17 190 -38 77 -14 173 -32 220 -42 75 -16 294 -43 561 -69 107 -10 129 -16 129 -35 0 -22 -86 -36 -253 -42 -209 -7 -403 12 -752 73 -49 8 -116 19 -148 25 -33 5 -63 12 -69 15 -5 3 -33 10 -61 14 -29 5 -81 16 -117 24 -107 23 -222 47 -271 56 -26 5 -64 13 -85 19 -22 6 -54 11 -71 11 l-33 0 0 -67 c-1 -315 72 -746 190 -1128 57 -186 82 -261 90 -277 6 -10 10 -24 10 -33 0 -8 6 -29 14 -47 8 -18 22 -53 31 -78 10 -25 21 -54 25 -65 35 -92 83 -198 131 -291 215 -419 515 -711 892 -868 131 -55 208 -78 390 -115 214 -45 260 -62 330 -127 74 -68 205 -134 268 -134 67 0 143 -50 274 -179 63 -62 119 -110 124 -106 6 3 11 32 11 63 0 31 5 91 11 132 5 41 14 109 18 150 10 89 33 150 57 150 19 0 119 -16 219 -35 330 -64 622 -28 846 102 238 138 403 371 523 738 14 44 31 96 38 115 6 19 15 51 19 70 4 19 15 62 24 95 19 73 44 176 55 230 4 22 15 72 24 110 80 352 149 753 161 940 8 127 4 135 -91 145 -117 13 -407 57 -679 104 -243 41 -318 52 -648 91 -71 8 -133 17 -138 20 -22 14 -7 43 30 60 34 15 60 17 183 12 78 -3 190 -12 248 -20 58 -9 143 -20 190 -27 47 -6 92 -13 100 -15 45 -13 525 -77 639 -85 113 -9 138 -8 156 4 22 14 78 169 119 326 8 30 24 91 36 135 31 115 59 253 77 383 l6 42 -41 0 c-22 0 -64 -7 -93 -16 -30 -8 -79 -23 -109 -31 -30 -9 -64 -19 -75 -23 -75 -27 -93 -33 -120 -40 -16 -5 -68 -23 -115 -40 -47 -18 -96 -36 -110 -40 -14 -4 -81 -28 -150 -53 -472 -171 -579 -207 -608 -207 -34 0 -30 52 5 80 70 55 356 161 658 245 72 20 171 47 220 61 50 14 113 32 140 40 28 8 64 19 80 24 34 9 86 28 130 45 17 7 52 21 80 31 30 11 70 39 100 69 48 47 52 55 68 135 20 100 34 216 47 395 5 72 12 146 15 165 3 19 10 112 15 205 6 94 17 271 25 395 8 124 20 313 25 420 5 107 13 236 19 285 12 107 18 406 8 421 -7 12 -43 22 -167 49 -223 48 -318 84 -449 172 -36 24 -71 43 -78 43 -9 0 -13 -16 -13 -55 0 -64 -25 -122 -66 -154 -29 -23 -59 -27 -69 -11 -10 16 -6 266 5 335 5 33 14 105 20 160 15 150 37 306 49 344 18 57 56 67 96 26 22 -21 25 -33 25 -102 0 -43 -5 -121 -12 -175 -17 -139 -9 -160 106 -274 117 -116 156 -145 212 -155 46 -9 428 5 457 17 14 5 24 -10 52 -70 19 -43 35 -85 35 -95 0 -9 6 -23 13 -30 9 -9 12 -75 12 -259 0 -231 -4 -288 -36 -492 -6 -36 -14 -96 -19 -135 -4 -38 -13 -92 -19 -120 -5 -27 -17 -95 -26 -150 -9 -55 -21 -120 -25 -145 -22 -108 -33 -169 -41 -220 -4 -30 -15 -93 -24 -140 -39 -203 -82 -466 -96 -588 -11 -98 -10 -105 8 -123 18 -18 24 -19 69 -8 27 6 67 18 89 25 92 32 185 6 185 -52 0 -18 -11 -29 -50 -49 -27 -14 -60 -25 -73 -25 -14 0 -44 -7 -67 -15 -23 -8 -57 -15 -75 -15 -36 0 -106 -26 -117 -43 -3 -6 -9 -38 -13 -71 -16 -160 -56 -343 -111 -511 -83 -251 -84 -320 -9 -350 11 -4 252 -11 535 -15 432 -7 527 -11 588 -25 39 -9 72 -21 72 -26 0 -4 -30 -17 -67 -28 -85 -25 -347 -40 -841 -48 -309 -5 -354 -8 -361 -22 -5 -9 -14 -52 -20 -96 -7 -44 -16 -105 -21 -135 -34 -199 -90 -664 -90 -746 0 -107 42 -149 200 -200 154 -51 268 -66 550 -74 146 -4 276 -11 290 -15 63 -20 140 -93 171 -163 45 -103 18 -191 -179 -590 -61 -124 -79 -153 -100 -159 -34 -8 -324 5 -381 18 -184 42 -271 82 -475 218 -145 98 -295 181 -326 181 -11 0 -22 -6 -24 -12 -2 -7 -11 -47 -21 -88 -33 -135 -159 -352 -292 -500 -132 -147 -373 -275 -585 -311 -79 -13 -93 -12 -348 36 -163 31 -251 15 -297 -54 -20 -29 -23 -47 -23 -130 0 -53 5 -116 11 -141 6 -25 15 -67 19 -95 5 -27 16 -79 25 -115 41 -161 45 -254 14 -294 -17 -22 -28 -26 -71 -26 -50 0 -52 1 -121 73 -63 65 -237 286 -237 301 0 4 -10 23 -23 44 -13 20 -31 58 -41 84 -25 67 -35 73 -130 70 -45 -2 -94 2 -109 7 -42 16 -109 84 -188 188 -64 85 -79 99 -135 125 -86 40 -186 66 -534 139 -206 43 -315 86 -404 158 -38 30 -178 164 -312 296 -238 235 -314 327 -314 377 0 45 -21 98 -45 114 -47 30 -117 -6 -262 -136 -155 -140 -250 -167 -395 -116 -95 34 -153 70 -230 144 -62 60 -138 167 -138 196 0 6 -4 16 -10 22 -15 15 -31 100 -37 192 -5 76 -3 86 17 107 12 12 40 30 63 38 73 26 247 47 385 47 160 0 250 19 294 63 25 26 28 35 28 95 0 37 -5 83 -10 102 -6 19 -15 62 -20 95 -5 33 -16 89 -25 125 -40 174 -48 208 -55 245 -4 22 -15 72 -24 110 -24 101 -47 221 -56 285 -4 30 -12 87 -18 125 -6 39 -19 138 -28 220 -9 83 -21 155 -28 160 -6 6 -38 19 -71 29 -33 10 -91 29 -130 41 -38 13 -164 53 -280 90 -309 100 -729 254 -1020 375 -121 51 -432 201 -460 223 -18 14 -18 16 -3 22 25 10 216 -53 618 -205 711 -268 1052 -377 1234 -396 119 -12 135 4 111 118 -46 223 -158 320 -795 693 -439 257 -651 415 -557 415 37 0 93 -26 187 -88 147 -96 316 -188 615 -337 299 -148 409 -198 459 -211 l29 -7 -6 49 c-24 197 -38 336 -47 439 -33 406 -88 763 -155 1010 -20 73 -42 188 -55 290 -12 100 -2 202 27 263 18 39 81 82 118 82 22 0 67 21 85 40 3 3 28 23 55 44 28 22 125 114 218 205 189 186 183 175 144 294 -13 40 -32 99 -41 132 -10 33 -22 76 -28 95 -25 79 -45 218 -34 245 9 25 72 19 94 -10z m2017 1 c22 -33 35 -146 45 -404 4 -123 11 -227 15 -230 4 -4 61 -12 127 -18 127 -11 140 -17 136 -63 -4 -32 -32 -40 -183 -49 l-120 -7 -6 -170 c-8 -188 -18 -269 -39 -302 -21 -33 -37 -35 -65 -10 -34 31 -55 169 -55 372 0 85 -3 155 -7 155 -230 9 -254 13 -267 47 -19 48 50 73 198 73 95 0 115 3 120 16 3 9 6 123 6 255 0 213 2 244 20 291 27 72 49 84 75 44z m796 -79 c7 -40 15 -180 19 -317 l5 -245 123 -11 c67 -5 127 -15 133 -21 6 -6 9 -23 7 -39 -3 -26 -8 -30 -58 -41 -30 -6 -85 -12 -121 -12 -40 -1 -71 -6 -77 -13 -6 -7 -12 -42 -14 -78 -10 -140 -34 -319 -55 -392 -7 -26 -50 -23 -67 5 -18 29 -36 220 -36 385 0 99 -3 132 -12 132 -185 0 -268 19 -268 61 0 36 68 59 172 59 l93 0 18 168 c9 92 17 185 18 207 1 67 33 214 52 236 17 19 20 20 36 5 11 -10 24 -46 32 -89z m879 57 c100 -20 150 -38 245 -85 124 -63 173 -106 159 -144 -5 -13 -16 -15 -53 -10 -25 3 -64 12 -86 19 -206 68 -323 96 -404 96 -99 0 -158 -29 -200 -100 -30 -51 -27 -92 9 -128 45 -46 114 -62 300 -72 151 -8 279 -22 322 -36 9 -3 31 -21 47 -40 77 -87 13 -227 -136 -302 -237 -119 -526 1 -659 273 -99 204 -96 297 15 405 123 120 266 161 441 124z m-2572 -10 c212 -43 348 -165 403 -364 29 -106 26 -175 -12 -234 -44 -70 -120 -140 -186 -173 -53 -26 -67 -28 -168 -27 -119 1 -158 10 -275 67 -91 45 -196 151 -241 242 -31 64 -34 77 -34 165 0 82 4 103 26 151 31 66 84 122 142 149 87 40 220 50 345 24z m1266 -4039 c15 -8 34 -15 41 -15 8 0 27 -17 44 -37 59 -72 36 -174 -49 -218 -66 -34 -128 -49 -203 -50 -76 0 -80 1 -103 30 -54 67 -10 202 90 276 33 24 50 29 95 29 31 0 69 -7 85 -15z m-1851 -373 c79 -27 103 -45 126 -98 28 -62 26 -106 -4 -155 -32 -49 -64 -62 -137 -56 -96 8 -150 65 -156 165 -5 75 7 104 58 138 42 29 42 29 113 6z m3581 -382 c24 -9 26 -15 26 -64 0 -102 -56 -186 -125 -186 -27 0 -41 9 -72 44 -21 24 -46 66 -57 95 -17 47 -17 53 -2 76 9 13 31 29 49 34 43 12 150 13 181 1z"/>
</g>
<g id="layer104" fill="#c0c1c1" stroke="none">
<path d="M0 6000 l0 -6000 6000 0 6000 0 0 6000 0 6000 -6000 0 -6000 0 0 -6000z m3608 4005 c11 -13 25 -39 32 -57 6 -18 16 -42 20 -53 4 -11 15 -39 24 -62 9 -24 22 -60 30 -80 8 -21 33 -90 56 -153 23 -63 46 -126 52 -140 6 -14 14 -36 18 -50 5 -14 34 -97 64 -185 155 -440 159 -455 110 -455 -39 0 -81 52 -136 170 -28 58 -53 114 -58 125 -12 32 -37 96 -55 145 -18 49 -32 70 -47 70 -5 0 -78 -67 -161 -148 -164 -159 -231 -217 -289 -247 -20 -10 -42 -30 -49 -44 -17 -38 -23 -422 -10 -711 13 -288 41 -627 71 -855 44 -345 70 -480 96 -505 10 -10 125 -63 254 -118 129 -55 294 -125 365 -157 153 -66 556 -263 615 -300 22 -14 45 -23 50 -20 6 4 6 -3 1 -17 -8 -22 -13 -23 -107 -23 -55 0 -121 6 -149 14 -164 43 -392 140 -625 265 -215 115 -329 167 -358 164 -27 -3 -27 -4 -26 -78 2 -82 34 -219 65 -269 10 -17 33 -40 49 -50 40 -24 164 -62 310 -95 63 -15 142 -33 175 -40 33 -8 96 -22 140 -31 44 -9 96 -21 115 -26 32 -9 73 -17 190 -38 77 -14 173 -32 220 -42 106 -22 451 -62 552 -63 42 -1 74 -4 71 -8 -2 -5 5 -8 16 -8 50 0 63 -21 35 -56 -11 -13 -14 -14 -11 -3 4 13 -2 14 -52 5 -31 -5 -58 -12 -61 -15 -8 -9 -405 5 -500 18 -111 15 -253 37 -365 56 -49 9 -116 20 -148 26 -33 5 -63 12 -69 15 -5 3 -33 10 -61 14 -29 5 -81 16 -117 24 -107 23 -222 47 -271 56 -26 5 -64 13 -85 19 -22 6 -54 11 -71 11 l-33 0 0 -67 c-1 -315 72 -746 190 -1128 57 -186 82 -261 90 -277 6 -10 10 -24 10 -33 0 -8 6 -29 14 -47 8 -18 22 -53 31 -78 10 -25 21 -54 25 -65 35 -92 83 -198 131 -291 215 -419 515 -711 892 -868 131 -55 208 -78 390 -115 214 -45 260 -62 330 -127 74 -68 205 -134 268 -134 67 0 143 -50 274 -179 63 -62 119 -110 124 -106 6 3 11 32 11 63 0 31 5 91 11 132 5 41 14 109 18 150 10 89 33 150 57 150 19 0 119 -16 219 -35 330 -64 622 -28 846 102 238 138 403 371 523 738 14 44 31 96 38 115 6 19 15 51 19 70 4 19 15 62 24 95 19 73 44 176 55 230 4 22 15 72 24 110 80 352 149 753 161 940 8 127 4 135 -91 145 -117 13 -407 57 -679 104 -243 41 -318 52 -648 91 -71 8 -133 17 -138 20 -22 14 -7 43 30 60 34 15 60 17 183 12 78 -3 190 -12 248 -20 58 -9 143 -20 190 -27 47 -6 92 -13 100 -15 45 -13 525 -77 639 -85 113 -9 138 -8 156 4 22 14 78 169 119 326 8 30 24 91 36 135 31 115 59 253 77 383 l6 42 -41 0 c-22 0 -64 -7 -93 -16 -56 -16 -154 -44 -177 -50 -7 -2 -10 -9 -7 -14 4 -7 -4 -9 -23 -5 -22 3 -41 -3 -73 -25 -24 -16 -51 -30 -59 -30 -13 0 -13 1 0 10 8 5 11 10 5 10 -13 0 -43 -20 -30 -20 11 0 -16 -20 -28 -20 -5 0 -5 5 -1 12 5 8 2 9 -12 4 -10 -5 -48 -19 -84 -31 -36 -13 -121 -44 -190 -68 -524 -189 -579 -207 -608 -207 -34 0 -30 52 5 80 67 53 315 147 589 225 71 20 152 42 179 50 28 8 76 22 108 31 31 8 55 20 52 25 -4 5 1 9 10 9 9 0 13 -5 9 -11 -4 -8 -1 -8 12 -1 11 5 36 12 56 16 21 4 37 12 35 18 -1 6 13 14 30 18 22 5 30 4 26 -3 -4 -7 0 -8 13 -2 10 4 33 12 49 18 17 6 44 16 60 22 17 7 52 21 80 31 30 11 70 39 100 69 48 47 52 55 68 135 20 100 34 216 47 395 5 72 12 146 15 165 3 19 10 112 15 205 6 94 17 271 25 395 8 124 20 313 25 420 5 107 13 236 19 285 12 107 18 406 8 421 -7 12 -43 22 -167 49 -223 48 -318 84 -449 172 -36 24 -71 43 -78 43 -9 0 -13 -16 -13 -55 0 -64 -25 -122 -66 -154 -29 -23 -59 -27 -69 -11 -10 16 -6 266 5 335 5 33 14 105 20 160 15 150 37 306 49 344 18 57 56 67 96 26 22 -21 25 -33 25 -102 0 -43 -5 -121 -12 -175 -17 -139 -9 -160 106 -274 117 -116 156 -145 212 -155 46 -9 428 5 457 17 14 5 24 -10 52 -70 19 -43 35 -85 35 -95 0 -9 6 -23 13 -30 9 -9 12 -75 12 -259 0 -231 -4 -288 -36 -492 -6 -36 -14 -96 -19 -135 -4 -38 -13 -92 -19 -120 -5 -27 -17 -95 -26 -150 -9 -55 -21 -120 -25 -145 -22 -108 -33 -169 -41 -220 -4 -30 -15 -93 -24 -140 -39 -203 -82 -466 -96 -588 -11 -98 -10 -105 8 -123 18 -18 24 -19 69 -8 27 6 67 18 89 25 92 32 185 6 185 -52 0 -18 -11 -29 -50 -49 -27 -14 -60 -25 -73 -25 -14 0 -44 -7 -67 -15 -23 -8 -57 -15 -75 -15 -36 0 -106 -26 -117 -43 -3 -6 -9 -38 -13 -71 -16 -160 -56 -343 -111 -511 -83 -251 -84 -320 -9 -350 11 -4 252 -11 535 -15 432 -7 527 -11 588 -25 39 -9 72 -21 72 -26 0 -4 -18 -14 -40 -20 -41 -12 -47 -30 -7 -23 20 4 21 4 2 -5 -25 -12 -65 -14 -65 -3 0 4 -46 4 -102 0 -199 -14 -626 -28 -835 -28 -245 0 -224 10 -242 -115 -7 -44 -16 -105 -21 -135 -34 -199 -90 -664 -90 -746 0 -107 42 -149 200 -200 154 -51 268 -66 550 -74 146 -4 276 -11 290 -15 63 -20 140 -93 171 -163 45 -103 18 -191 -179 -590 -61 -124 -79 -153 -100 -159 -34 -8 -324 5 -381 18 -184 42 -271 82 -475 218 -145 98 -295 181 -326 181 -11 0 -22 -6 -24 -12 -2 -7 -11 -47 -21 -88 -33 -135 -159 -352 -292 -500 -132 -147 -373 -275 -585 -311 -79 -13 -93 -12 -348 36 -163 31 -251 15 -297 -54 -20 -29 -23 -47 -23 -130 0 -53 5 -116 11 -141 6 -25 15 -67 19 -95 5 -27 16 -79 25 -115 41 -161 45 -254 14 -294 -17 -22 -28 -26 -71 -26 -50 0 -52 1 -121 73 -63 65 -237 286 -237 301 0 4 -10 23 -23 44 -13 20 -31 58 -41 84 -25 67 -35 73 -130 70 -45 -2 -94 2 -109 7 -42 16 -109 84 -188 188 -64 85 -79 99 -135 125 -86 40 -186 66 -534 139 -206 43 -315 86 -404 158 -38 30 -178 164 -312 296 -238 235 -314 327 -314 377 0 45 -21 98 -45 114 -47 30 -117 -6 -262 -136 -155 -140 -250 -167 -395 -116 -95 34 -153 70 -230 144 -62 60 -138 167 -138 196 0 6 -4 16 -10 22 -15 15 -31 100 -37 192 -5 76 -3 86 17 107 12 12 40 30 63 38 73 26 247 47 385 47 160 0 250 19 294 63 25 26 28 35 28 95 0 37 -5 83 -10 102 -6 19 -15 62 -20 95 -5 33 -16 89 -25 125 -40 174 -48 208 -55 245 -4 22 -15 72 -24 110 -24 101 -47 221 -56 285 -4 30 -12 87 -18 125 -6 39 -19 138 -28 220 -9 83 -21 155 -28 160 -6 6 -38 19 -71 29 -33 10 -91 29 -130 41 -38 13 -164 53 -280 90 -471 152 -966 343 -1284 496 -90 43 -166 79 -168 79 -2 0 -1 -4 2 -10 3 -6 -1 -7 -10 -3 -12 4 -13 8 -4 13 8 6 5 11 -11 20 -26 14 -17 27 22 34 17 3 31 0 35 -9 5 -8 19 -15 33 -17 14 -2 35 -9 47 -16 26 -15 46 -16 38 -2 -3 6 1 7 9 4 9 -3 16 -11 16 -16 0 -6 11 -7 24 -4 14 3 28 2 31 -4 4 -6 -1 -7 -12 -3 -10 3 -16 4 -13 1 5 -6 675 -261 845 -321 352 -126 644 -210 769 -223 119 -12 135 4 111 118 -46 223 -158 320 -795 693 -129 76 -275 164 -323 197 -49 33 -91 57 -94 54 -3 -3 -14 -1 -25 5 -11 6 -17 13 -14 16 7 8 -13 33 -26 33 -5 0 -6 -5 -2 -11 4 -7 -1 -7 -16 1 -16 9 -19 14 -10 20 9 5 9 9 1 14 -6 4 -15 4 -21 1 -5 -3 -10 0 -10 8 0 8 -8 14 -17 13 -10 0 -17 5 -15 13 1 7 -4 24 -13 37 -8 13 -14 25 -13 25 11 5 48 5 48 0 0 -11 59 -29 85 -27 13 2 22 0 20 -5 -6 -9 22 -39 36 -39 5 0 9 5 9 11 0 5 5 7 11 3 8 -5 8 -9 -1 -14 -8 -5 0 -14 23 -29 38 -23 52 -27 41 -10 -3 6 6 3 20 -7 16 -10 23 -20 17 -24 -6 -3 3 -14 20 -24 26 -15 33 -16 41 -5 8 12 9 11 5 -1 -5 -21 61 -60 388 -225 289 -146 489 -239 539 -251 l29 -7 -6 49 c-24 197 -38 336 -47 439 -33 406 -88 763 -155 1010 -20 73 -42 188 -55 290 -12 100 -2 202 27 263 18 39 81 82 118 82 22 0 67 21 85 40 3 3 28 23 55 44 28 22 125 114 218 205 189 186 183 175 144 294 -13 40 -32 99 -41 132 -10 33 -22 76 -28 95 -25 79 -45 218 -34 245 9 25 72 19 94 -10z m2017 1 c22 -33 35 -146 45 -404 4 -123 11 -227 15 -230 4 -4 61 -12 127 -18 127 -11 140 -17 136 -63 -4 -32 -32 -40 -183 -49 l-120 -7 -6 -170 c-8 -188 -18 -269 -39 -302 -21 -33 -37 -35 -65 -10 -34 31 -55 169 -55 372 0 85 -3 155 -7 155 -230 9 -254 13 -267 47 -19 48 50 73 198 73 95 0 115 3 120 16 3 9 6 123 6 255 0 213 2 244 20 291 27 72 49 84 75 44z m796 -79 c7 -40 15 -180 19 -317 l5 -245 123 -11 c67 -5 127 -15 133 -21 6 -6 9 -23 7 -39 -3 -26 -8 -30 -58 -41 -30 -6 -85 -12 -121 -12 -40 -1 -71 -6 -77 -13 -6 -7 -12 -42 -14 -78 -10 -140 -34 -319 -55 -392 -7 -26 -50 -23 -67 5 -18 29 -36 220 -36 385 0 99 -3 132 -12 132 -185 0 -268 19 -268 61 0 36 68 59 172 59 l93 0 18 168 c9 92 17 185 18 207 1 67 33 214 52 236 17 19 20 20 36 5 11 -10 24 -46 32 -89z m879 57 c100 -20 150 -38 245 -85 124 -63 173 -106 159 -144 -5 -13 -16 -15 -53 -10 -25 3 -64 12 -86 19 -206 68 -323 96 -404 96 -99 0 -158 -29 -200 -100 -30 -51 -27 -92 9 -128 45 -46 114 -62 300 -72 151 -8 279 -22 322 -36 9 -3 31 -21 47 -40 77 -87 13 -227 -136 -302 -237 -119 -526 1 -659 273 -99 204 -96 297 15 405 123 120 266 161 441 124z m-2572 -10 c212 -43 348 -165 403 -364 29 -106 26 -175 -12 -234 -44 -70 -120 -140 -186 -173 -53 -26 -67 -28 -168 -27 -119 1 -158 10 -275 67 -91 45 -196 151 -241 242 -31 64 -34 77 -34 165 0 82 4 103 26 151 31 66 84 122 142 149 87 40 220 50 345 24z m-2751 -2491 c-4 -3 -10 -3 -14 0 -3 4 0 7 7 7 7 0 10 -3 7 -7z m158 -223 c3 -5 4 -10 1 -10 -3 0 -8 5 -11 10 -3 6 -4 10 -1 10 3 0 8 -4 11 -10z m-805 -391 c12 -8 9 -10 -12 -6 -15 2 -29 -1 -31 -7 -2 -6 -8 -8 -12 -4 -11 10 4 28 23 28 9 0 24 -5 32 -11z m97 -26 c-4 -3 -10 -3 -14 0 -3 4 0 7 7 7 7 0 10 -3 7 -7z m6670 -440 c-4 -3 -10 -3 -14 0 -3 4 0 7 7 7 7 0 10 -3 7 -7z m-2103 -468 c15 -8 34 -15 41 -15 8 0 27 -17 44 -37 59 -72 36 -174 -49 -218 -66 -34 -128 -49 -203 -50 -76 0 -80 1 -103 30 -54 67 -10 202 90 276 33 24 50 29 95 29 31 0 69 -7 85 -15z m-629 -105 c3 -6 -1 -7 -9 -4 -18 7 -21 14 -7 14 6 0 13 -4 16 -10z m-71 -72 c-3 -4 -20 -8 -37 -7 -30 1 -30 1 -7 8 34 10 50 9 44 -1z m4323 -145 c-4 -3 -10 -3 -14 0 -3 4 0 7 7 7 7 0 10 -3 7 -7z m-5474 -51 c79 -27 103 -45 126 -98 28 -62 26 -106 -4 -155 -32 -49 -64 -62 -137 -56 -96 8 -150 65 -156 165 -5 75 7 104 58 138 42 29 42 29 113 6z m3581 -382 c24 -9 26 -15 26 -64 0 -102 -56 -186 -125 -186 -27 0 -41 9 -72 44 -21 24 -46 66 -57 95 -17 47 -17 53 -2 76 9 13 31 29 49 34 43 12 150 13 181 1z"/>
<path d="M2053 7323 c4 -3 10 -3 14 0 3 4 0 7 -7 7 -7 0 -10 -3 -7 -7z"/>
</g>
<g id="layer105" fill="#fefefe" stroke="none">
<path d="M0 6000 l0 -6000 6000 0 6000 0 0 6000 0 6000 -6000 0 -6000 0 0 -6000z m3608 4005 c11 -13 25 -39 32 -57 6 -18 16 -42 20 -53 4 -11 15 -39 24 -62 9 -24 22 -60 30 -80 8 -21 33 -90 56 -153 23 -63 46 -126 52 -140 6 -14 14 -36 18 -50 5 -14 34 -97 64 -185 155 -440 159 -455 110 -455 -39 0 -81 52 -136 170 -28 58 -53 114 -58 125 -12 32 -37 96 -55 145 -18 49 -32 70 -47 70 -5 0 -78 -67 -161 -148 -164 -159 -231 -217 -289 -247 -20 -10 -42 -30 -49 -44 -17 -38 -23 -422 -10 -711 13 -288 41 -627 71 -855 44 -345 70 -480 96 -505 10 -10 125 -63 254 -118 129 -55 294 -125 365 -157 153 -66 556 -263 615 -300 22 -14 45 -23 49 -20 12 7 34 -22 26 -35 -10 -15 -229 -6 -299 13 -158 44 -378 139 -606 261 -215 115 -329 167 -358 164 -27 -3 -27 -4 -26 -78 2 -82 34 -219 65 -269 10 -17 33 -40 49 -50 40 -24 164 -62 310 -95 63 -15 142 -33 175 -40 33 -8 96 -22 140 -31 44 -9 96 -21 115 -26 32 -9 73 -17 190 -38 77 -14 173 -32 220 -42 61 -13 156 -25 330 -44 80 -8 156 -18 169 -21 13 -3 27 0 31 7 6 8 31 8 106 -2 94 -13 99 -15 99 -38 0 -20 -9 -27 -53 -42 -49 -17 -74 -17 -310 -9 -141 6 -288 14 -327 20 -109 14 -261 38 -360 55 -49 9 -116 20 -148 26 -33 5 -63 12 -69 15 -5 3 -33 10 -61 14 -29 5 -81 16 -117 24 -107 23 -222 47 -271 56 -26 5 -64 13 -85 19 -22 6 -54 11 -71 11 l-33 0 0 -67 c-1 -315 72 -746 190 -1128 57 -186 82 -261 90 -277 6 -10 10 -24 10 -33 0 -8 6 -29 14 -47 8 -18 22 -53 31 -78 10 -25 21 -54 25 -65 35 -92 83 -198 131 -291 215 -419 515 -711 892 -868 131 -55 208 -78 390 -115 214 -45 260 -62 330 -127 74 -68 205 -134 268 -134 67 0 143 -50 274 -179 63 -62 119 -110 124 -106 6 3 11 32 11 63 0 31 5 91 11 132 5 41 14 109 18 150 10 89 33 150 57 150 19 0 119 -16 219 -35 330 -64 622 -28 846 102 238 138 403 371 523 738 14 44 31 96 38 115 6 19 15 51 19 70 4 19 15 62 24 95 19 73 44 176 55 230 4 22 15 72 24 110 80 352 149 753 161 940 8 127 4 135 -91 145 -117 13 -407 57 -679 104 -243 41 -318 52 -648 91 -71 8 -133 17 -138 20 -22 14 -7 43 30 60 34 15 60 17 183 12 78 -3 190 -12 248 -20 58 -9 143 -20 190 -27 47 -6 92 -13 100 -15 45 -13 525 -77 639 -85 113 -9 138 -8 156 4 22 14 78 169 119 326 8 30 24 91 36 135 31 115 59 253 77 383 l6 42 -41 0 c-22 0 -64 -7 -93 -16 -30 -8 -71 -21 -93 -27 -21 -6 -45 -17 -53 -25 -8 -8 -28 -18 -46 -22 -18 -5 -70 -22 -117 -40 -47 -17 -86 -27 -88 -21 -2 5 -31 -2 -65 -14 -34 -13 -100 -37 -147 -53 -47 -17 -177 -64 -290 -105 -113 -41 -230 -82 -260 -92 -30 -10 -65 -21 -78 -26 -13 -5 -34 -9 -47 -9 -36 0 -35 51 2 80 82 64 496 210 828 291 22 6 47 16 55 24 9 8 42 22 75 31 135 37 156 43 165 49 6 3 10 2 10 -4 0 -9 30 -2 95 24 17 7 52 21 80 31 30 11 70 39 100 69 48 47 52 55 68 135 20 100 34 216 47 395 5 72 12 146 15 165 3 19 10 112 15 205 6 94 17 271 25 395 8 124 20 313 25 420 5 107 13 236 19 285 12 107 18 406 8 421 -7 12 -43 22 -167 49 -223 48 -318 84 -449 172 -36 24 -71 43 -78 43 -9 0 -13 -16 -13 -55 0 -64 -25 -122 -66 -154 -29 -23 -59 -27 -69 -11 -10 16 -6 266 5 335 5 33 14 105 20 160 15 150 37 306 49 344 18 57 56 67 96 26 22 -21 25 -33 25 -102 0 -43 -5 -121 -12 -175 -17 -139 -9 -160 106 -274 117 -116 156 -145 212 -155 46 -9 428 5 457 17 14 5 24 -10 52 -70 19 -43 35 -85 35 -95 0 -9 6 -23 13 -30 9 -9 12 -75 12 -259 0 -231 -4 -288 -36 -492 -6 -36 -14 -96 -19 -135 -4 -38 -13 -92 -19 -120 -5 -27 -17 -95 -26 -150 -9 -55 -21 -120 -25 -145 -22 -108 -33 -169 -41 -220 -4 -30 -15 -93 -24 -140 -39 -203 -82 -466 -96 -588 -11 -98 -10 -105 8 -123 18 -18 24 -19 69 -8 27 6 67 18 89 25 92 32 185 6 185 -52 0 -18 -11 -29 -50 -49 -27 -14 -60 -25 -73 -25 -14 0 -44 -7 -67 -15 -23 -8 -57 -15 -75 -15 -36 0 -106 -26 -117 -43 -3 -6 -9 -38 -13 -71 -16 -160 -56 -343 -111 -511 -83 -251 -84 -320 -9 -350 28 -11 1069 -24 1073 -14 5 13 38 11 98 -7 53 -15 79 -40 66 -61 -19 -28 -60 -35 -236 -39 -99 -2 -280 -8 -401 -13 -121 -6 -320 -11 -442 -11 -257 0 -234 10 -252 -115 -7 -44 -16 -105 -21 -135 -34 -199 -90 -664 -90 -746 0 -107 42 -149 200 -200 154 -51 268 -66 550 -74 146 -4 276 -11 290 -15 63 -20 140 -93 171 -163 45 -103 18 -191 -179 -590 -61 -124 -79 -153 -100 -159 -34 -8 -324 5 -381 18 -184 42 -271 82 -475 218 -145 98 -295 181 -326 181 -11 0 -22 -6 -24 -12 -2 -7 -11 -47 -21 -88 -33 -135 -159 -352 -292 -500 -132 -147 -373 -275 -585 -311 -79 -13 -93 -12 -348 36 -163 31 -251 15 -297 -54 -20 -29 -23 -47 -23 -130 0 -53 5 -116 11 -141 6 -25 15 -67 19 -95 5 -27 16 -79 25 -115 41 -161 45 -254 14 -294 -17 -22 -28 -26 -71 -26 -50 0 -52 1 -121 73 -63 65 -237 286 -237 301 0 4 -10 23 -23 44 -13 20 -31 58 -41 84 -25 67 -35 73 -130 70 -45 -2 -94 2 -109 7 -42 16 -109 84 -188 188 -64 85 -79 99 -135 125 -86 40 -186 66 -534 139 -206 43 -315 86 -404 158 -38 30 -178 164 -312 296 -238 235 -314 327 -314 377 0 45 -21 98 -45 114 -47 30 -117 -6 -262 -136 -155 -140 -250 -167 -395 -116 -95 34 -153 70 -230 144 -62 60 -138 167 -138 196 0 6 -4 16 -10 22 -15 15 -31 100 -37 192 -5 76 -3 86 17 107 12 12 40 30 63 38 73 26 247 47 385 47 160 0 250 19 294 63 25 26 28 35 28 95 0 37 -5 83 -10 102 -6 19 -15 62 -20 95 -5 33 -16 89 -25 125 -40 174 -48 208 -55 245 -4 22 -15 72 -24 110 -24 101 -47 221 -56 285 -4 30 -12 87 -18 125 -6 39 -19 138 -28 220 -9 83 -21 155 -28 160 -6 6 -38 19 -71 29 -33 10 -91 29 -130 41 -38 13 -164 53 -280 90 -400 129 -899 318 -1198 454 -38 17 -73 28 -78 25 -20 -12 -252 114 -263 143 -11 29 10 38 56 24 195 -55 283 -84 268 -89 -7 -3 52 -29 131 -59 814 -307 1042 -386 1326 -457 79 -19 184 -30 216 -22 33 8 39 38 22 118 -46 219 -157 319 -746 664 -128 75 -268 158 -310 185 -43 26 -79 44 -81 39 -2 -5 -36 13 -76 40 -147 100 -214 170 -182 190 43 28 118 1 255 -89 54 -36 108 -70 120 -75 14 -6 16 -10 7 -13 -21 -8 76 -63 383 -218 289 -146 489 -239 539 -251 l29 -7 -6 49 c-24 197 -38 336 -47 439 -33 406 -88 763 -155 1010 -20 73 -42 188 -55 290 -12 100 -2 202 27 263 18 39 81 82 118 82 22 0 67 21 85 40 3 3 28 23 55 44 28 22 125 114 218 205 189 186 183 175 144 294 -13 40 -32 99 -41 132 -10 33 -22 76 -28 95 -25 79 -45 218 -34 245 9 25 72 19 94 -10z m2017 1 c22 -33 35 -146 45 -404 4 -123 11 -227 15 -230 4 -4 61 -12 127 -18 127 -11 140 -17 136 -63 -4 -32 -32 -40 -183 -49 l-120 -7 -6 -170 c-8 -188 -18 -269 -39 -302 -21 -33 -37 -35 -65 -10 -34 31 -55 169 -55 372 0 85 -3 155 -7 155 -230 9 -254 13 -267 47 -19 48 50 73 198 73 95 0 115 3 120 16 3 9 6 123 6 255 0 213 2 244 20 291 27 72 49 84 75 44z m796 -79 c7 -40 15 -180 19 -317 l5 -245 123 -11 c67 -5 127 -15 133 -21 6 -6 9 -23 7 -39 -3 -26 -8 -30 -58 -41 -30 -6 -85 -12 -121 -12 -40 -1 -71 -6 -77 -13 -6 -7 -12 -42 -14 -78 -10 -140 -34 -319 -55 -392 -7 -26 -50 -23 -67 5 -18 29 -36 220 -36 385 0 99 -3 132 -12 132 -185 0 -268 19 -268 61 0 36 68 59 172 59 l93 0 18 168 c9 92 17 185 18 207 1 67 33 214 52 236 17 19 20 20 36 5 11 -10 24 -46 32 -89z m879 57 c100 -20 150 -38 245 -85 124 -63 173 -106 159 -144 -5 -13 -16 -15 -53 -10 -25 3 -64 12 -86 19 -206 68 -323 96 -404 96 -99 0 -158 -29 -200 -100 -30 -51 -27 -92 9 -128 45 -46 114 -62 300 -72 151 -8 279 -22 322 -36 9 -3 31 -21 47 -40 77 -87 13 -227 -136 -302 -237 -119 -526 1 -659 273 -99 204 -96 297 15 405 123 120 266 161 441 124z m-2572 -10 c212 -43 348 -165 403 -364 29 -106 26 -175 -12 -234 -44 -70 -120 -140 -186 -173 -53 -26 -67 -28 -168 -27 -119 1 -158 10 -275 67 -91 45 -196 151 -241 242 -31 64 -34 77 -34 165 0 82 4 103 26 151 31 66 84 122 142 149 87 40 220 50 345 24z m-651 -1186 c-3 -7 -5 -2 -5 12 0 14 2 19 5 13 2 -7 2 -19 0 -25z m1917 -2853 c15 -8 34 -15 41 -15 8 0 27 -17 44 -37 59 -72 36 -174 -49 -218 -66 -34 -128 -49 -203 -50 -76 0 -80 1 -103 30 -54 67 -10 202 90 276 33 24 50 29 95 29 31 0 69 -7 85 -15z m-1851 -373 c79 -27 103 -45 126 -98 28 -62 26 -106 -4 -155 -32 -49 -64 -62 -137 -56 -96 8 -150 65 -156 165 -5 75 7 104 58 138 42 29 42 29 113 6z m3581 -382 c24 -9 26 -15 26 -64 0 -102 -56 -186 -125 -186 -27 0 -41 9 -72 44 -21 24 -46 66 -57 95 -17 47 -17 53 -2 76 9 13 31 29 49 34 43 12 150 13 181 1z"/>
<path d="M3200 4301 c-82 -8 -146 -23 -200 -47 -105 -46 -96 -173 20 -277 182 -164 558 -86 660 137 11 25 20 61 20 81 0 32 -4 38 -37 51 -116 49 -303 71 -463 55z"/>
<path d="M8228 4129 c-114 -152 -72 -302 126 -448 46 -34 183 -106 251 -132 118 -44 243 -69 352 -69 122 0 179 18 213 67 26 38 59 126 60 159 0 12 7 40 15 63 21 60 23 217 3 237 -17 18 -85 29 -266 43 -175 15 -384 45 -592 86 -41 8 -89 18 -106 21 -27 5 -35 2 -56 -27z"/>
<path d="M7040 9427 c-60 -21 -36 -61 65 -110 97 -46 156 -61 245 -62 73 0 91 4 129 25 78 44 80 75 6 114 -77 40 -364 61 -445 33z"/>
<path d="M4446 9860 c-71 -22 -100 -81 -94 -188 4 -63 11 -92 40 -152 41 -85 68 -113 153 -165 128 -76 278 -98 359 -50 56 32 101 97 122 174 19 66 12 125 -22 196 -39 83 -147 151 -286 179 -82 17 -224 20 -272 6z"/>
</g>


</svg>