<!DOCTYPE svg PUBLIC "-//W3C//DTD SVG 20010904//EN" "http://www.w3.org/TR/2001/REC-SVG-20010904/DTD/svg10.dtd">
<svg version="1.0" xmlns="http://www.w3.org/2000/svg" width="300px" height="300px" viewBox="0 0 3000 3000" preserveAspectRatio="xMidYMid meet">
<g id="layer101" fill="#0a0b0b" stroke="none">
<path d="M0 1500 l0 -1500 1500 0 1500 0 0 1500 0 1500 -1500 0 -1500 0 0 -1500z"/>
</g>
<g id="layer102" fill="#3f4141" stroke="none">
<path d="M0 1500 l0 -1500 1500 0 1500 0 0 1500 0 1500 -1500 0 -1500 0 0 -1500z m909 992 c14 -26 101 -282 101 -296 -1 -22 -50 45 -61 84 -7 22 -15 40 -19 40 -3 0 -27 -22 -53 -50 -26 -27 -55 -50 -63 -50 -32 0 -3 -502 30 -529 7 -6 57 -29 111 -52 113 -47 215 -97 215 -105 0 -11 -75 3 -125 24 -27 11 -83 39 -123 62 -41 23 -76 39 -80 36 -3 -3 0 -30 7 -59 11 -50 13 -53 54 -65 23 -6 53 -14 67 -16 14 -2 82 -16 151 -30 70 -14 146 -26 170 -26 37 -1 41 -2 25 -12 -28 -16 -195 -3 -291 22 -44 11 -96 23 -117 26 l-36 6 4 -74 c5 -91 16 -144 60 -277 86 -259 204 -379 392 -398 32 -4 56 -12 59 -20 7 -18 56 -43 86 -43 15 0 36 -14 56 -36 18 -19 34 -34 36 -32 1 2 5 27 8 57 3 29 8 55 10 58 3 2 40 -1 84 -8 143 -22 233 24 292 148 18 37 42 109 52 158 11 50 28 126 39 169 11 44 20 101 20 128 l0 48 -39 0 c-22 0 -75 7 -118 16 -43 9 -116 19 -163 22 -70 6 -81 9 -65 18 21 12 139 0 270 -26 34 -6 74 -10 90 -8 28 3 31 7 52 93 12 50 22 100 22 113 1 21 -2 23 -31 17 -18 -4 -91 -27 -163 -52 -169 -59 -174 -60 -155 -41 16 16 107 50 180 68 25 6 75 22 112 36 81 31 84 38 93 204 3 63 10 180 15 260 13 192 13 180 -11 180 -34 0 -101 22 -131 42 l-28 19 0 -26 c0 -24 -24 -45 -37 -31 -6 6 15 205 23 218 3 4 11 5 19 2 12 -5 14 -18 9 -60 -7 -53 -6 -55 31 -90 37 -35 40 -36 104 -32 l65 3 15 -39 c19 -49 6 -180 -39 -396 -31 -150 -37 -210 -21 -210 5 0 21 4 35 9 18 7 28 6 36 -4 14 -17 0 -27 -50 -35 -34 -5 -35 -7 -42 -60 -4 -30 -16 -75 -27 -100 -11 -25 -21 -55 -21 -67 0 -23 1 -23 150 -23 93 0 150 -4 150 -10 0 -10 -36 -13 -205 -14 l-100 -1 -8 -65 c-5 -36 -10 -100 -10 -144 l-2 -79 40 -14 c71 -26 100 -30 159 -22 52 7 59 5 81 -17 33 -33 31 -58 -11 -143 l-35 -71 -54 0 c-54 0 -129 25 -156 53 -9 8 -34 24 -57 36 -37 19 -42 19 -42 5 0 -54 -84 -157 -154 -190 -56 -26 -106 -30 -155 -13 -24 8 -39 9 -57 0 -29 -13 -32 -53 -8 -144 16 -61 11 -76 -23 -77 -15 0 -92 97 -99 125 -4 18 -12 22 -37 21 -26 -1 -35 6 -59 41 -31 46 -53 56 -163 74 -85 14 -103 24 -181 102 -33 34 -68 68 -77 75 -10 7 -17 24 -17 37 0 36 -29 32 -69 -9 -18 -19 -41 -36 -52 -39 -26 -7 -115 37 -134 67 -23 34 -31 101 -14 111 7 5 50 12 96 15 46 4 86 10 89 13 9 9 -10 127 -30 197 -9 30 -19 87 -22 126 l-7 71 -111 37 c-196 66 -410 156 -372 156 4 0 76 -27 159 -59 148 -58 227 -83 296 -95 l34 -6 -6 37 c-10 59 -35 83 -180 168 -130 76 -184 115 -161 115 6 0 28 -14 49 -30 34 -27 184 -104 254 -131 23 -9 23 -8 18 33 -4 24 -9 81 -12 128 -4 47 -18 126 -31 176 -35 135 -31 194 16 194 9 0 42 26 74 59 l58 58 -21 68 c-11 38 -18 72 -15 77 9 13 23 9 33 -10z m509 -70 l3 -82 34 0 c24 0 35 -5 35 -15 0 -11 -11 -15 -40 -15 l-40 0 0 -59 c0 -59 -14 -86 -31 -60 -5 8 -9 40 -9 72 l0 57 -35 0 c-24 0 -35 5 -35 15 0 11 11 15 40 15 l40 0 0 64 c0 72 7 99 24 93 7 -2 12 -36 14 -85z m192 -3 l0 -79 35 0 c24 0 35 -5 35 -15 0 -10 -10 -15 -34 -15 l-33 0 -7 -62 c-7 -67 -9 -73 -25 -63 -6 3 -11 35 -11 71 l0 64 -35 0 c-24 0 -35 5 -35 15 0 10 10 15 34 15 l33 0 5 69 c3 37 8 73 12 80 16 26 26 -5 26 -80z m-414 66 c41 -8 83 -53 90 -97 5 -27 1 -40 -18 -63 -48 -55 -164 -29 -200 46 -26 51 -9 105 35 118 18 5 39 8 47 6 8 -2 29 -6 46 -10z m680 -4 c40 -18 61 -37 51 -47 -2 -3 -32 4 -66 16 -67 22 -106 19 -121 -10 -16 -30 13 -50 73 -51 82 -2 102 -10 102 -43 0 -22 -8 -33 -35 -48 -65 -35 -144 -3 -174 72 -22 55 -20 67 13 101 36 35 93 39 157 10z m-365 -1001 c22 -12 25 -43 6 -59 -24 -19 -78 -26 -88 -10 -17 28 14 79 49 79 7 0 22 -5 33 -10z m-453 -102 c20 -20 14 -56 -9 -63 -29 -10 -64 25 -54 54 7 23 43 29 63 9z m882 -102 c0 -16 -26 -46 -40 -46 -9 0 -20 25 -20 46 0 9 11 14 30 14 19 0 30 -5 30 -14z"/>
<path d="M2051 1021 c-16 -29 -14 -45 10 -75 40 -50 150 -88 212 -72 19 4 26 16 36 61 7 30 10 59 7 64 -3 5 -41 12 -83 16 -102 11 -103 11 -140 19 -26 6 -34 4 -42 -13z"/>
<path d="M1090 2455 c-17 -21 -4 -80 23 -105 11 -11 39 -25 61 -31 38 -10 42 -9 63 16 36 41 28 97 -18 120 -37 20 -113 19 -129 0z"/>
</g>
<g id="layer103" fill="#616161" stroke="none">
<path d="M0 1500 l0 -1500 1500 0 1500 0 0 1500 0 1500 -1500 0 -1500 0 0 -1500z m906 998 c4 -7 31 -79 59 -160 38 -109 48 -148 38 -148 -13 0 -63 92 -63 118 0 22 -15 13 -63 -38 -26 -27 -55 -50 -64 -50 -14 0 -15 -17 -10 -172 7 -193 23 -337 40 -355 7 -6 52 -27 100 -47 49 -20 123 -54 165 -76 76 -39 77 -39 39 -40 -45 0 -133 34 -229 90 -39 22 -73 39 -75 36 -3 -2 1 -29 7 -59 13 -57 17 -60 125 -81 11 -3 77 -16 146 -30 70 -14 148 -26 173 -26 33 0 45 -4 40 -11 -11 -19 -215 -4 -334 25 -58 14 -110 26 -117 26 -13 0 -9 -119 8 -195 18 -84 78 -253 110 -316 61 -117 154 -193 273 -225 28 -8 66 -14 84 -14 19 0 32 -5 32 -12 0 -17 55 -48 84 -48 14 0 37 -15 57 -37 l34 -38 5 55 c7 78 9 79 82 63 144 -30 252 24 315 158 13 30 36 106 50 169 14 63 31 142 39 175 7 33 13 79 14 103 l0 42 -42 0 c-24 0 -92 9 -152 20 -60 11 -131 20 -158 20 -48 0 -63 12 -31 24 17 7 129 -6 257 -29 122 -23 123 -23 140 35 21 71 40 170 33 176 -8 8 -79 -12 -220 -63 -70 -26 -130 -43 -134 -39 -15 15 17 27 259 100 48 15 93 33 101 41 8 8 17 33 21 57 7 52 38 550 34 552 -2 1 -29 7 -61 14 -32 6 -71 21 -87 32 l-30 21 0 -26 c0 -24 -24 -45 -37 -31 -6 6 15 205 23 218 3 4 11 5 19 2 12 -5 14 -18 9 -60 -7 -53 -6 -55 31 -90 37 -35 40 -36 104 -32 l65 3 15 -39 c18 -48 6 -173 -39 -401 -41 -207 -41 -216 13 -196 13 5 30 6 38 1 21 -13 -2 -32 -48 -39 -37 -6 -38 -8 -44 -57 -4 -28 -16 -77 -28 -108 -34 -91 -42 -86 134 -86 85 0 155 -4 155 -9 0 -13 -79 -21 -201 -21 l-108 0 -5 -32 c-3 -18 -10 -60 -16 -92 -5 -33 -10 -81 -10 -108 0 -44 3 -50 28 -59 68 -26 126 -35 178 -28 50 7 57 5 79 -17 33 -33 31 -58 -11 -143 l-35 -71 -53 0 c-58 0 -114 19 -161 55 -16 12 -45 30 -62 39 -31 15 -33 15 -33 0 0 -29 -42 -102 -79 -137 -73 -71 -145 -91 -233 -67 -77 22 -95 -18 -62 -143 16 -61 11 -76 -23 -77 -15 0 -92 97 -99 126 -5 19 -11 22 -33 18 -22 -5 -33 0 -54 26 -15 17 -27 36 -27 41 0 14 -43 28 -134 45 -102 20 -122 31 -187 102 -30 33 -64 64 -76 71 -16 8 -23 21 -23 41 0 41 -25 39 -72 -7 -45 -44 -82 -46 -140 -8 -41 27 -68 75 -68 120 0 32 30 45 103 45 29 0 63 3 76 7 22 6 23 9 17 60 -3 30 -15 87 -26 126 -11 40 -23 104 -27 143 l-6 71 -56 18 c-180 56 -460 169 -449 181 3 3 80 -24 170 -60 233 -91 338 -116 338 -80 0 57 -50 104 -200 187 -86 47 -169 107 -149 107 8 0 33 -14 56 -30 22 -17 94 -55 158 -85 l117 -55 -6 32 c-3 18 -8 76 -12 128 -3 52 -17 136 -30 186 -35 135 -31 194 16 194 9 0 42 26 74 59 l58 58 -21 68 c-11 38 -18 72 -15 77 7 12 22 10 30 -4z m512 -76 l3 -82 34 0 c24 0 35 -5 35 -15 0 -11 -11 -15 -40 -15 l-40 0 0 -59 c0 -59 -14 -86 -31 -60 -5 8 -9 40 -9 72 l0 57 -35 0 c-24 0 -35 5 -35 15 0 11 11 15 40 15 l40 0 0 64 c0 72 7 99 24 93 7 -2 12 -36 14 -85z m192 -3 l0 -79 35 0 c24 0 35 -5 35 -15 0 -10 -10 -15 -34 -15 l-33 0 -7 -62 c-7 -67 -9 -73 -25 -63 -6 3 -11 35 -11 71 l0 64 -35 0 c-24 0 -35 5 -35 15 0 10 10 15 34 15 l33 0 5 69 c3 37 8 73 12 80 16 26 26 -5 26 -80z m-379 55 c28 -14 59 -68 59 -102 0 -31 -38 -71 -74 -77 -59 -12 -147 39 -161 92 -9 39 12 90 43 102 31 12 96 4 133 -15z m645 7 c40 -18 61 -37 51 -47 -2 -3 -32 4 -66 16 -67 22 -106 19 -121 -10 -16 -31 13 -50 75 -50 30 0 65 -4 79 -10 35 -13 35 -52 0 -75 -66 -43 -143 -20 -181 55 -30 58 -29 76 6 111 36 35 93 39 157 10z m-365 -1001 c22 -12 25 -43 6 -59 -24 -19 -78 -26 -88 -10 -17 28 14 79 49 79 7 0 22 -5 33 -10z m-453 -102 c15 -15 16 -55 1 -63 -20 -13 -59 5 -65 30 -3 13 -3 29 1 34 8 15 48 14 63 -1z m882 -101 c0 -48 -40 -62 -59 -21 -14 32 -10 39 28 42 26 2 31 -1 31 -21z"/>
<path d="M2051 1022 c-16 -30 -14 -46 10 -76 40 -50 150 -88 212 -72 19 4 26 16 36 62 7 31 9 60 4 64 -4 4 -53 13 -108 18 -55 6 -110 14 -122 18 -15 4 -24 0 -32 -14z"/>
<path d="M1090 2455 c-15 -18 -5 -66 21 -99 24 -30 84 -50 110 -35 52 28 49 107 -5 133 -43 20 -110 21 -126 1z"/>
<path d="M1750 2351 c0 -13 64 -41 92 -41 32 0 51 19 37 37 -13 15 -129 19 -129 4z"/>
</g>
<g id="layer104" fill="#7f8181" stroke="none">
<path d="M0 1500 l0 -1500 1500 0 1500 0 0 1500 0 1500 -1500 0 -1500 0 0 -1500z m906 998 c4 -7 31 -79 59 -160 38 -109 48 -148 38 -148 -13 0 -63 92 -63 118 0 22 -15 13 -63 -38 -26 -27 -55 -50 -64 -50 -15 0 -16 -16 -10 -167 6 -166 23 -326 36 -351 4 -7 73 -41 152 -76 80 -34 157 -71 170 -80 24 -18 24 -18 -30 -13 -41 3 -83 19 -168 62 -62 32 -115 56 -118 54 -5 -6 14 -92 23 -101 14 -14 317 -78 400 -85 63 -4 80 -9 66 -16 -28 -16 -220 0 -334 27 -58 14 -110 26 -116 26 -23 0 -5 -155 32 -283 84 -295 198 -426 401 -460 48 -9 74 -19 95 -39 18 -17 41 -28 57 -28 19 0 38 -12 62 -37 l34 -38 5 62 c3 34 7 64 10 67 3 3 23 1 45 -4 62 -15 162 -12 203 6 52 21 99 70 134 138 41 81 120 441 105 480 -5 11 -19 16 -51 16 -25 0 -78 7 -118 15 -40 9 -108 19 -150 22 -77 6 -97 16 -58 28 22 7 59 3 229 -26 62 -10 121 -19 131 -19 13 0 23 19 38 73 12 39 25 92 28 116 l7 43 -34 -7 c-19 -4 -95 -29 -169 -56 -142 -52 -164 -57 -158 -36 4 11 110 49 275 96 86 25 99 37 107 93 7 52 38 550 34 552 -2 1 -29 7 -61 14 -32 6 -71 21 -87 32 l-30 21 0 -26 c0 -24 -24 -45 -37 -31 -6 6 15 205 23 218 3 4 11 5 19 2 12 -5 14 -18 9 -60 -7 -53 -6 -55 32 -90 37 -36 39 -36 102 -31 l64 5 15 -37 c19 -45 13 -138 -22 -325 -38 -198 -49 -275 -42 -282 3 -3 19 -2 34 3 33 12 53 7 53 -12 0 -8 -15 -17 -37 -20 -60 -10 -63 -12 -63 -50 0 -19 -12 -68 -26 -110 -14 -41 -23 -79 -19 -85 4 -6 63 -10 155 -10 82 0 151 -4 154 -9 9 -13 -58 -21 -191 -21 -68 0 -123 -3 -123 -6 0 -4 -7 -51 -16 -105 -8 -54 -14 -115 -12 -135 3 -35 6 -38 58 -56 40 -14 75 -18 129 -16 67 3 77 1 98 -20 31 -31 29 -57 -13 -141 l-35 -71 -53 0 c-58 0 -114 19 -161 55 -16 12 -44 29 -61 38 l-32 16 -6 -30 c-8 -41 -61 -119 -104 -152 -20 -15 -59 -34 -86 -42 -43 -13 -59 -13 -101 -1 -70 18 -95 8 -95 -40 0 -20 7 -63 16 -97 16 -61 11 -76 -23 -77 -15 0 -92 97 -99 126 -5 19 -11 22 -33 18 -27 -6 -54 16 -86 70 -7 12 -44 24 -120 39 l-110 21 -70 69 c-38 38 -80 76 -92 84 -15 10 -23 25 -23 44 0 40 -25 38 -70 -5 -48 -46 -68 -50 -120 -24 -54 28 -80 62 -87 116 -5 38 -3 42 21 52 15 5 51 10 79 10 78 0 97 8 97 39 0 14 -12 73 -26 131 -14 58 -28 135 -31 171 l-6 65 -116 38 c-142 45 -340 125 -372 149 l-24 18 25 -7 c14 -3 81 -29 150 -56 195 -77 340 -115 340 -89 0 21 -23 67 -43 90 -12 12 -65 48 -117 78 -145 84 -207 127 -187 131 10 2 39 -13 66 -32 26 -20 96 -58 155 -86 l108 -50 -6 28 c-3 15 -10 81 -16 147 -5 66 -19 151 -30 190 -32 111 -25 175 20 175 9 0 42 26 74 59 l58 58 -21 68 c-11 38 -18 72 -15 77 7 12 22 10 30 -4z m512 -76 l3 -82 34 0 c24 0 35 -5 35 -15 0 -11 -11 -15 -40 -15 l-40 0 0 -59 c0 -59 -14 -86 -31 -60 -5 8 -9 40 -9 72 l0 57 -35 0 c-24 0 -35 5 -35 15 0 11 11 15 40 15 l40 0 0 64 c0 72 7 99 24 93 7 -2 12 -36 14 -85z m192 -3 l0 -79 35 0 c24 0 35 -5 35 -15 0 -10 -10 -15 -34 -15 l-33 0 -7 -62 c-7 -67 -9 -73 -25 -63 -6 3 -11 35 -11 71 l0 64 -35 0 c-24 0 -35 5 -35 15 0 10 10 15 34 15 l33 0 5 69 c3 37 8 73 12 80 16 26 26 -5 26 -80z m-379 56 c31 -17 59 -66 59 -105 0 -12 -14 -35 -31 -52 -28 -28 -34 -30 -77 -24 -50 7 -84 27 -115 69 -27 35 -14 105 23 125 30 15 97 9 141 -13z m645 6 c40 -18 61 -37 51 -47 -2 -3 -32 4 -66 16 -67 22 -106 19 -121 -10 -17 -32 13 -50 81 -50 33 0 69 -5 80 -10 27 -15 24 -54 -7 -75 -66 -43 -143 -20 -181 55 -30 58 -29 76 6 111 36 35 93 39 157 10z m-365 -1001 c22 -12 25 -43 6 -59 -24 -19 -78 -26 -88 -10 -17 28 14 79 49 79 7 0 22 -5 33 -10z m-446 -130 c0 -29 -4 -36 -23 -38 -29 -4 -52 14 -52 43 0 30 9 36 45 33 27 -3 30 -6 30 -38z m873 -76 c-4 -38 -35 -55 -54 -30 -26 36 -18 56 22 56 32 0 35 -2 32 -26z"/>
<path d="M775 1071 c-50 -8 -59 -38 -21 -76 43 -43 139 -24 165 32 14 31 13 32 -36 44 -41 9 -48 9 -108 0z"/>
<path d="M2051 1022 c-16 -30 -14 -46 10 -76 40 -50 150 -88 212 -72 19 4 26 16 36 62 7 31 9 59 4 64 -4 4 -53 12 -108 18 -55 6 -110 14 -122 18 -15 4 -24 0 -32 -14z"/>
<path d="M1090 2450 c-8 -15 -8 -30 0 -54 14 -42 35 -61 83 -74 35 -10 41 -9 63 13 58 58 3 135 -95 135 -30 0 -43 -5 -51 -20z"/>
<path d="M1750 2351 c0 -11 63 -41 87 -41 11 0 28 6 38 14 18 13 18 14 -3 25 -24 13 -122 15 -122 2z"/>
</g>
<g id="layer105" fill="#fefefe" stroke="none">
<path d="M0 1500 l0 -1500 1500 0 1500 0 0 1500 0 1500 -1500 0 -1500 0 0 -1500z m906 998 c4 -6 28 -70 54 -142 26 -72 50 -139 55 -148 5 -13 3 -18 -8 -18 -20 0 -32 17 -53 78 -10 28 -21 52 -24 52 -3 0 -27 -22 -53 -50 -26 -27 -54 -50 -62 -50 -26 0 -18 -250 16 -461 l10 -67 92 -37 c51 -21 128 -56 172 -79 72 -37 77 -41 51 -44 -46 -6 -113 16 -213 70 -91 49 -93 49 -93 25 0 -13 5 -38 11 -54 10 -29 16 -32 122 -57 145 -34 205 -44 301 -52 66 -5 76 -8 60 -17 -10 -6 -53 -11 -94 -10 -63 1 -128 12 -352 59 l-26 6 4 -80 c6 -97 60 -296 110 -400 71 -147 189 -239 336 -263 35 -6 66 -17 71 -25 11 -19 65 -46 77 -39 6 4 29 -12 53 -35 l42 -42 5 60 c3 33 8 63 11 67 4 3 26 1 50 -4 76 -18 149 -13 204 13 101 46 149 138 194 366 17 85 32 175 33 199 l3 45 -160 27 c-88 16 -177 28 -198 29 -26 0 -37 4 -35 13 7 19 55 19 169 1 57 -9 131 -19 164 -21 l61 -5 22 68 c12 38 25 89 28 113 l7 43 -34 -7 c-19 -4 -99 -32 -178 -61 -79 -30 -145 -54 -147 -54 -2 0 -4 7 -4 15 0 21 68 49 194 81 138 36 175 52 180 78 11 54 18 128 31 341 8 126 15 235 15 241 0 6 -24 14 -52 18 -29 4 -70 18 -90 32 l-38 24 0 -25 c0 -24 -24 -44 -37 -31 -6 6 15 205 23 218 3 4 11 5 19 2 12 -5 14 -18 9 -60 -7 -53 -6 -55 32 -90 37 -36 39 -36 102 -31 l64 5 15 -37 c19 -44 13 -135 -21 -325 -38 -208 -48 -277 -43 -283 4 -3 20 0 38 6 24 8 36 8 46 -1 19 -16 4 -27 -48 -36 l-44 -8 -6 -49 c-4 -28 -14 -72 -23 -98 -19 -57 -20 -86 -3 -89 6 -1 76 -2 154 -2 133 -1 166 -6 149 -23 -4 -5 -78 -10 -165 -12 l-157 -3 -18 -122 c-10 -67 -17 -130 -15 -140 6 -29 73 -49 173 -50 80 -1 93 -4 113 -24 31 -31 29 -57 -13 -141 l-35 -71 -53 0 c-58 0 -114 19 -161 55 -16 12 -45 30 -62 39 -31 16 -33 16 -33 -2 0 -34 -52 -122 -92 -157 -23 -19 -63 -42 -90 -51 -43 -14 -58 -15 -108 -4 -78 17 -100 8 -100 -37 0 -19 7 -62 16 -96 16 -61 11 -76 -23 -77 -15 0 -92 97 -99 126 -5 19 -11 22 -33 18 -28 -6 -42 5 -88 64 -14 17 -40 27 -118 43 -54 10 -110 26 -122 35 -13 8 -57 48 -98 90 -53 52 -75 82 -75 99 0 36 -27 32 -72 -12 -29 -28 -46 -37 -73 -37 -61 0 -123 61 -132 132 -5 38 -3 42 21 52 15 5 51 10 79 10 78 0 97 8 97 39 0 14 -12 73 -26 131 -14 58 -28 135 -31 171 l-6 65 -91 28 c-123 37 -265 91 -356 134 -124 58 -54 48 112 -17 148 -58 285 -101 319 -101 14 0 16 6 9 38 -11 48 -51 82 -185 157 -58 33 -121 72 -138 87 -29 25 -30 27 -10 28 12 0 35 -11 52 -25 26 -23 248 -135 266 -135 3 0 4 4 1 8 -3 5 -10 69 -16 143 -6 74 -20 166 -31 205 -31 113 -23 174 21 174 9 0 42 26 74 59 l58 58 -21 68 c-11 38 -18 72 -15 77 7 12 22 10 30 -4z m512 -76 l3 -82 34 0 c24 0 35 -5 35 -15 0 -11 -11 -15 -40 -15 l-40 0 0 -59 c0 -59 -14 -86 -31 -60 -5 8 -9 40 -9 72 l0 57 -35 0 c-24 0 -35 5 -35 15 0 11 11 15 40 15 l40 0 0 64 c0 72 7 99 24 93 7 -2 12 -36 14 -85z m192 -3 l0 -79 35 0 c24 0 35 -5 35 -15 0 -10 -10 -15 -34 -15 l-33 0 -7 -62 c-7 -67 -9 -73 -25 -63 -6 3 -11 35 -11 71 l0 64 -35 0 c-24 0 -35 5 -35 15 0 10 10 15 34 15 l33 0 5 69 c3 37 8 73 12 80 16 26 26 -5 26 -80z m-392 67 c41 -21 60 -48 68 -93 6 -38 3 -45 -24 -73 -35 -35 -83 -40 -138 -14 -73 35 -98 121 -49 169 28 29 98 34 143 11z m658 -5 c40 -18 61 -37 51 -47 -2 -3 -32 4 -66 16 -67 22 -106 19 -121 -10 -18 -33 13 -50 89 -50 39 0 72 -5 79 -12 39 -39 -26 -106 -94 -95 -49 8 -89 40 -108 87 -22 55 -20 67 13 101 36 35 93 39 157 10z m-365 -1001 c22 -12 25 -43 6 -59 -24 -19 -78 -26 -88 -10 -17 28 14 79 49 79 7 0 22 -5 33 -10z m-468 -89 c49 -19 43 -81 -7 -81 -41 0 -62 50 -34 78 14 14 11 14 41 3z m895 -123 c-4 -38 -34 -51 -55 -22 -25 34 -17 54 23 54 34 0 35 -1 32 -32z"/>
<path d="M775 1071 c-47 -7 -57 -34 -28 -70 39 -47 146 -32 172 26 14 31 13 32 -36 44 -41 9 -48 9 -108 0z"/>
<path d="M2050 1021 c-15 -29 -12 -45 11 -75 40 -50 150 -88 212 -72 19 4 26 16 36 61 7 30 10 59 6 65 -3 5 -30 10 -58 10 -29 0 -83 7 -122 15 -38 8 -71 15 -72 15 -1 0 -7 -9 -13 -19z"/>
<path d="M1103 2459 c-16 -16 -17 -50 -2 -83 14 -30 70 -58 107 -54 55 6 68 91 19 122 -33 21 -109 30 -124 15z"/>
<path d="M1750 2351 c0 -17 70 -43 100 -36 41 9 46 23 15 35 -33 12 -115 13 -115 1z"/>
</g>


</svg>